<?xml version="1.0" standalone="no"?>
<!DOCTYPE svg PUBLIC "-//W3C//DTD SVG 20010904//EN"
 "http://www.w3.org/TR/2001/REC-SVG-20010904/DTD/svg10.dtd">
<svg version="1.0" xmlns="http://www.w3.org/2000/svg"
 width="1536.000000pt" height="1536.000000pt" viewBox="0 0 1536.000000 1536.000000"
 preserveAspectRatio="xMidYMid meet">
<metadata>
Created by potrace 1.11, written by Peter Selinger 2001-2013
</metadata>
<g transform="translate(0.000000,1536.000000) scale(0.100000,-0.100000)"
fill="#000000" stroke="none">
<path d="M383 7999 l2 -2073 950 1 c863 0 1208 5 1246 17 8 3 41 7 74 10 33 4
71 8 85 11 14 3 43 8 65 11 22 3 74 15 115 26 41 11 82 21 90 23 81 19 245 89
339 146 34 22 67 39 71 39 5 0 10 3 12 8 2 4 23 23 48 42 95 73 209 187 274
275 17 22 33 42 36 45 16 13 107 163 155 253 84 159 156 358 199 547 14 62 18
83 31 160 3 19 7 46 10 60 14 83 19 192 19 400 0 213 -3 282 -19 390 -3 19 -8
51 -11 70 -7 54 -11 71 -24 125 -6 28 -13 59 -14 70 -5 30 -44 159 -78 255
-36 101 -166 370 -179 370 -5 0 -9 6 -9 13 0 6 -16 35 -35 62 -20 28 -43 61
-53 75 -9 14 -21 30 -27 36 -5 7 -26 31 -45 55 -77 94 -270 269 -298 269 -5 0
-17 8 -28 18 -67 63 -360 175 -539 206 -16 3 -43 8 -59 12 -29 6 -40 8 -136
19 -30 3 -73 9 -95 12 -22 3 -520 8 -1107 10 l-1067 4 2 -2072z m1195 1359
c47 1 89 5 95 9 5 3 8 2 4 -3 -6 -10 135 -10 152 0 6 4 16 4 22 1 9 -6 154
-10 184 -5 26 4 302 -7 365 -14 37 -5 140 -30 180 -44 8 -3 20 -6 25 -8 6 -1
24 -7 40 -14 17 -6 31 -10 31 -8 1 2 11 -6 23 -16 12 -11 21 -16 21 -12 0 12
144 -91 196 -140 45 -43 105 -119 141 -179 21 -34 93 -186 97 -204 1 -9 8 -28
14 -42 10 -26 37 -128 47 -184 33 -176 40 -269 40 -510 -1 -248 -9 -338 -46
-513 -110 -512 -414 -793 -894 -828 -85 -7 -952 -12 -971 -6 -9 2 -12 363 -12
1361 l0 1359 64 0 c36 0 68 2 71 6 3 3 11 3 16 -1 6 -4 49 -6 95 -5z"/>
<path d="M4919 10018 c0 -29 -1 -187 -1 -352 0 -235 3 -300 13 -307 7 -4 18
-4 25 1 6 6 14 7 17 4 8 -8 203 -8 216 0 6 4 16 4 22 1 5 -4 47 -6 92 -6 45 1
89 1 97 1 8 0 33 0 56 -2 22 -1 45 2 52 6 7 4 17 4 23 1 9 -6 154 -10 184 -5
6 1 28 2 50 3 l40 2 1 353 1 352 -444 0 -443 0 -1 -52z"/>
<path d="M6659 10048 c-1 -28 0 -671 0 -679 1 -11 51 -17 57 -7 3 4 10 5 16 2
6 -4 48 -6 92 -5 45 1 87 2 94 2 86 -4 182 -2 191 3 6 4 16 4 22 1 5 -4 47 -6
92 -6 45 1 89 1 97 1 8 0 33 0 56 -2 22 -1 45 1 51 5 6 4 21 3 33 -1 11 -4 36
-6 53 -4 l33 4 0 354 0 354 -443 0 -443 0 -1 -22z"/>
<path d="M10558 10043 c-2 -16 -1 -39 3 -53 3 -14 3 -34 -1 -44 -3 -11 -3 -39
0 -63 4 -23 4 -43 1 -43 -3 0 -6 -20 -6 -45 0 -25 3 -45 6 -45 3 0 3 -17 -1
-37 -3 -21 -3 -55 1 -75 3 -21 3 -38 -1 -38 -4 0 -4 -15 0 -34 4 -19 4 -39 0
-46 -4 -6 -4 -26 -1 -43 4 -18 4 -49 1 -69 -4 -20 -4 -42 0 -48 4 -6 4 -26 1
-43 -4 -18 -4 -51 -1 -74 4 -24 4 -43 1 -43 -3 0 -6 -20 -6 -45 0 -25 4 -45 8
-45 5 0 5 -5 2 -10 -4 -6 -6 -35 -5 -65 0 -30 1 -62 1 -70 -1 -19 -1 -115 -1
-183 0 -30 -2 -58 -6 -63 -3 -5 0 -9 6 -9 6 0 8 -5 5 -10 -4 -6 -7 -31 -7 -56
0 -46 0 -46 -16 -23 -85 121 -249 258 -386 319 -64 29 -147 59 -181 66 -11 2
-40 8 -65 13 -106 23 -364 35 -408 19 -13 -4 -21 -4 -18 1 4 5 -10 5 -32 1
-20 -5 -55 -11 -77 -15 -86 -13 -260 -67 -320 -99 -16 -9 -33 -16 -38 -16 -8
0 -188 -109 -197 -119 -3 -4 -23 -19 -45 -36 -75 -55 -232 -222 -293 -311 -18
-27 -33 -50 -39 -64 -4 -8 -10 -17 -13 -20 -18 -13 -126 -239 -145 -300 -1 -3
-11 -36 -24 -75 -12 -38 -25 -81 -27 -95 -3 -14 -9 -41 -14 -60 -5 -19 -12
-55 -15 -80 -4 -24 -8 -47 -10 -50 -6 -9 -19 -211 -18 -285 0 -74 13 -266 18
-275 2 -3 6 -23 9 -45 3 -22 8 -51 11 -65 3 -14 7 -34 9 -45 18 -96 97 -317
153 -430 171 -344 419 -560 780 -681 58 -20 115 -37 127 -40 109 -21 138 -26
186 -31 127 -13 326 -5 425 17 22 5 53 11 70 14 16 3 41 10 55 15 14 5 34 12
45 17 11 4 25 8 30 9 32 7 120 54 190 100 78 52 177 141 243 219 l32 39 1 -44
c1 -24 0 -48 -1 -54 -6 -31 0 -199 8 -204 8 -5 816 -6 869 -2 9 1 12 486 12
2071 l0 2070 -444 0 -444 0 -3 -27z m-672 -1667 c76 -6 166 -31 235 -66 47
-24 153 -102 182 -135 33 -38 117 -155 111 -155 -3 0 3 -12 14 -27 10 -16 33
-64 49 -108 29 -76 35 -97 56 -190 14 -65 26 -195 29 -300 0 -25 -12 -173 -17
-200 -36 -198 -93 -340 -185 -460 -144 -186 -336 -277 -573 -270 -261 8 -467
144 -599 395 -35 65 -93 235 -103 300 -19 126 -24 285 -12 410 6 71 10 92 33
184 18 75 18 75 32 109 7 16 12 31 12 35 0 27 120 222 163 264 132 132 259
196 427 214 30 4 57 8 59 10 2 2 7 2 10 0 4 -3 38 -7 77 -10z"/>
<path d="M12312 9716 l0 -354 35 -4 c19 -2 37 0 39 4 3 5 15 6 26 2 18 -5 156
-9 181 -4 9 2 105 2 115 0 25 -5 152 -1 161 4 6 4 16 4 22 0 6 -3 55 -6 108
-5 53 1 105 1 116 1 19 0 57 1 82 3 7 0 10 4 7 9 -5 8 -6 34 -3 155 1 28 -2
56 -6 62 -3 6 -1 11 5 11 6 0 8 5 5 10 -7 11 -8 79 -2 135 1 17 -1 42 -5 57
-3 15 -3 30 2 33 5 3 5 18 1 33 -4 15 -5 38 -1 52 3 14 3 39 0 55 -4 17 -4 39
0 50 16 45 21 44 -445 45 l-443 0 0 -354z"/>
<path d="M14052 9715 l0 -355 29 -1 c47 -1 109 -1 114 1 7 2 103 2 113 0 4 -1
25 -1 47 -1 22 1 47 1 55 1 8 0 51 0 95 1 44 0 86 0 93 0 83 -4 182 -2 190 3
6 3 21 2 34 -2 12 -5 34 -6 48 -2 14 4 35 3 48 -1 l22 -9 0 360 0 360 -444 0
-444 0 0 -355z"/>
<path d="M4919 8970 c0 -14 0 -799 -1 -1744 0 -1101 -4 -1732 -10 -1755 -15
-52 -44 -88 -91 -113 -35 -19 -59 -22 -147 -23 -58 0 -120 4 -138 8 l-32 9 2
-319 3 -318 30 -2 c93 -7 196 -14 240 -18 68 -5 381 -6 425 -1 19 3 46 7 60 9
14 3 44 8 67 12 57 9 167 49 219 80 51 30 154 130 154 150 0 8 6 18 13 22 12
8 27 41 54 123 16 49 19 64 31 156 5 34 8 891 8 1905 l-1 1844 -442 0 -443 0
-1 -25z"/>
<path d="M6659 8975 c-4 -114 0 -3035 4 -3041 4 -7 772 -11 867 -5 14 1 15
167 15 1534 l0 1532 -442 0 c-439 1 -443 1 -444 -20z"/>
<path d="M12312 7260 c0 -954 -3 -1749 -6 -1767 -15 -82 -46 -119 -118 -144
-50 -17 -150 -20 -258 -8 l-35 4 -1 -313 c0 -172 2 -315 5 -317 3 -1 60 -6
126 -10 66 -4 138 -9 160 -11 64 -5 377 -5 413 1 18 2 52 7 75 10 178 26 346
121 422 240 23 36 66 125 60 125 -2 0 2 18 10 39 18 53 26 101 31 196 7 140 7
182 0 193 -3 6 -2 13 3 17 6 3 8 12 5 19 -7 18 -11 96 -4 96 7 0 4 106 -4 119
-4 6 -2 11 4 11 6 0 8 5 5 10 -7 11 -8 79 -2 135 1 17 -1 42 -5 57 -3 15 -3
30 2 33 5 3 5 18 0 34 -4 16 -6 32 -3 35 3 3 5 83 4 178 -1 95 -2 180 -2 188
3 83 2 110 -4 119 -3 6 -1 11 5 11 6 0 8 5 5 10 -4 6 -6 34 -6 63 1 29 1 63 0
77 0 14 0 32 0 40 4 63 2 110 -4 119 -3 6 -1 11 5 11 6 0 8 5 5 10 -4 6 -6 32
-6 58 3 252 2 463 -3 471 -4 5 -2 12 4 16 6 4 8 11 4 16 -5 9 -6 34 -3 156 1
28 -2 56 -6 62 -3 6 -1 11 5 11 6 0 8 5 5 10 -7 11 -8 79 -2 135 1 17 -1 42
-5 57 -3 15 -3 30 2 33 5 3 5 18 0 34 -4 16 -6 32 -3 35 3 3 5 83 4 178 -1 95
-2 180 -2 188 3 83 2 110 -4 119 -3 6 -1 11 5 11 6 0 8 5 5 10 -4 6 -6 34 -6
63 1 29 1 63 0 77 0 14 0 32 0 40 4 63 2 110 -4 119 -3 6 -1 11 5 11 6 0 8 5
5 10 -4 6 -6 34 -6 63 2 89 1 111 -5 116 -3 4 -203 6 -444 6 l-438 0 0 -1735z"/>
<path d="M14055 8990 c-2 -3 -3 -694 -2 -1535 l2 -1529 430 -1 c237 0 436 1
443 3 9 3 12 319 12 1536 l0 1531 -441 0 c-242 1 -442 -2 -444 -5z"/>
</g>
</svg>
